<svg width="393" height="127" viewBox="0 0 393 127" fill="none" xmlns="http://www.w3.org/2000/svg">
<rect width="394.926" height="127" fill="#5938FB"/>
<mask id="mask0_3712_25" style="mask-type:alpha" maskUnits="userSpaceOnUse" x="0" y="0" width="395" height="127">
<rect width="394.926" height="127" fill="#2D9DFF"/>
</mask>
<g mask="url(#mask0_3712_25)">
<path d="M123.598 160.006C122.266 159.963 121.013 159.896 119.856 159.811L123.598 160.006C140.475 160.547 170.036 157.287 177.855 140.041C188.4 116.782 175.878 88.2895 206.196 90.0339C236.513 91.7783 281.99 116.2 292.535 92.3598C303.08 68.5192 318.239 53.4007 338.671 60.96C359.102 68.5192 361.738 86.545 397.988 81.3117C434.237 76.0784 486.305 147.019 442.146 166.208C406.82 181.559 356.909 177.309 358.008 187L299.126 169.115L123.598 160.006Z" fill="white" fill-opacity="0.1"/>
<path d="M-5.02608 86.7659C-33.7157 81.0194 -45.3019 96.5276 -47.5087 105C-51.9225 68.3477 -60.9708 -18.3287 -61.8535 -71.8153C-62.957 -138.674 154.422 -138.674 206.284 -86.7341C258.146 -34.7946 172.077 27.0907 136.215 26.5382C100.353 25.9857 84.353 28.7484 79.9393 58.0334C75.5255 87.3185 30.8359 93.9491 -5.02608 86.7659Z" fill="white" fill-opacity="0.1"/>
</g>
</svg>
