<svg width="19" height="19" viewBox="0 0 19 19" fill="none" xmlns="http://www.w3.org/2000/svg">
<rect width="19" height="19" rx="5" fill="#FBFBFB"/>
<path fill-rule="evenodd" clip-rule="evenodd" d="M9.49997 5C9.73866 5 9.96758 5.09482 10.1364 5.2636C10.3051 5.43239 10.4 5.66131 10.4 5.9V8.6H13.1C13.3387 8.6 13.5676 8.69482 13.7364 8.8636C13.9051 9.03239 14 9.2613 14 9.5C14 9.73869 13.9051 9.96761 13.7364 10.1364C13.5676 10.3052 13.3387 10.4 13.1 10.4H10.4V13.1C10.4 13.3387 10.3051 13.5676 10.1364 13.7364C9.96758 13.9052 9.73866 14 9.49997 14C9.26127 14 9.03236 13.9052 8.86357 13.7364C8.69479 13.5676 8.59997 13.3387 8.59997 13.1V10.4H5.89997C5.66127 10.4 5.43236 10.3052 5.26357 10.1364C5.09479 9.96761 4.99997 9.73869 4.99997 9.5C4.99997 9.2613 5.09479 9.03239 5.26357 8.8636C5.43236 8.69482 5.66127 8.6 5.89997 8.6H8.59997V5.9C8.59997 5.66131 8.69479 5.43239 8.86357 5.2636C9.03236 5.09482 9.26127 5 9.49997 5Z" fill="#2D49FF"/>
</svg>
