<svg width="16" height="20" viewBox="0 0 16 20" fill="none" xmlns="http://www.w3.org/2000/svg">
<path fill-rule="evenodd" clip-rule="evenodd" d="M1.90774 6.62092C1.90774 4.99341 2.55426 3.43255 3.70509 2.28173C4.85591 1.1309 6.41677 0.484375 8.04428 0.484375C9.67179 0.484375 11.2326 1.1309 12.3835 2.28173C13.5343 3.43255 14.1808 4.99341 14.1808 6.62092V9.92063L15.7781 13.1151C15.8516 13.2622 15.8863 13.4256 15.8789 13.5898C15.8716 13.754 15.8223 13.9136 15.7359 14.0535C15.6494 14.1933 15.5287 14.3087 15.3851 14.3887C15.2415 14.4688 15.0798 14.5108 14.9155 14.5108H11.4404C11.2454 15.2631 10.8061 15.9295 10.1914 16.4051C9.57675 16.8808 8.82152 17.1389 8.04428 17.1389C7.26705 17.1389 6.51181 16.8808 5.89714 16.4051C5.28246 15.9295 4.84314 15.2631 4.64814 14.5108H1.17311C1.00871 14.5108 0.847046 14.4688 0.703455 14.3887C0.559865 14.3087 0.43912 14.1933 0.352689 14.0535C0.266258 13.9136 0.21701 13.754 0.209623 13.5898C0.202236 13.4256 0.236955 13.2622 0.310483 13.1151L1.90774 9.92063V6.62092ZM6.52592 14.5108C6.67981 14.7773 6.90114 14.9986 7.16767 15.1525C7.4342 15.3063 7.73653 15.3873 8.04428 15.3873C8.35203 15.3873 8.65437 15.3063 8.92089 15.1525C9.18742 14.9986 9.40875 14.7773 9.56264 14.5108H6.52592ZM8.04428 2.23767C6.88177 2.23767 5.76688 2.69948 4.94486 3.5215C4.12284 4.34351 3.66104 5.45841 3.66104 6.62092V9.92063C3.66102 10.1927 3.59769 10.461 3.47606 10.7044L2.45038 12.7575H13.6391L12.6134 10.7044C12.4914 10.4611 12.4278 10.1928 12.4275 9.92063V6.62092C12.4275 5.45841 11.9657 4.34351 11.1437 3.5215C10.3217 2.69948 9.20679 2.23767 8.04428 2.23767Z" fill="#FBFBFB"/>
</svg>
