<svg width="55" height="30" viewBox="0 0 55 30" fill="none" xmlns="http://www.w3.org/2000/svg">
<rect x="0.955185" width="71.0448" height="30" rx="15" fill="black" fill-opacity="0.3"/>
<g clip-path="url(#clip0_3707_24)">
<path d="M10.7012 15.6255V12.3318C10.711 11.6844 10.8485 11.0452 11.1057 10.451C11.3629 9.85678 11.7348 9.31915 12.2002 8.86892C12.6655 8.41869 13.2152 8.06471 13.8176 7.82726C14.4199 7.58981 15.0633 7.47356 15.7107 7.48517C16.3581 7.47356 17.0014 7.58981 17.6038 7.82726C18.2062 8.06471 18.7558 8.41869 19.2212 8.86892C19.6865 9.31915 20.0584 9.85678 20.3157 10.451C20.5729 11.0452 20.7103 11.6844 20.7201 12.3318V15.6255M18.2154 22.2003C18.8797 22.2003 19.5168 21.9365 19.9865 21.4667C20.4562 20.997 20.7201 20.3599 20.7201 19.6956V16.8778M18.2154 22.2003C18.2154 22.6155 18.0505 23.0137 17.7569 23.3073C17.4633 23.6009 17.0651 23.7658 16.6499 23.7658H14.7714C14.3562 23.7658 13.958 23.6009 13.6645 23.3073C13.3709 23.0137 13.206 22.6155 13.206 22.2003C13.206 21.7852 13.3709 21.387 13.6645 21.0934C13.958 20.7998 14.3562 20.6349 14.7714 20.6349H16.6499C17.0651 20.6349 17.4633 20.7998 17.7569 21.0934C18.0505 21.387 18.2154 21.7852 18.2154 22.2003ZM8.82271 13.7469H10.0751C10.2411 13.7469 10.4004 13.8129 10.5178 13.9303C10.6353 14.0478 10.7012 14.2071 10.7012 14.3731V18.1302C10.7012 18.2963 10.6353 18.4555 10.5178 18.573C10.4004 18.6904 10.2411 18.7564 10.0751 18.7564H8.82271C8.49057 18.7564 8.17203 18.6244 7.93716 18.3896C7.7023 18.1547 7.57036 17.8362 7.57036 17.504V14.9993C7.57036 14.6672 7.7023 14.3486 7.93716 14.1138C8.17203 13.8789 8.49057 13.7469 8.82271 13.7469ZM22.5986 18.7564H21.3463C21.1802 18.7564 21.0209 18.6904 20.9035 18.573C20.7861 18.4555 20.7201 18.2963 20.7201 18.1302V14.3731C20.7201 14.2071 20.7861 14.0478 20.9035 13.9303C21.0209 13.8129 21.1802 13.7469 21.3463 13.7469H22.5986C22.9308 13.7469 23.2493 13.8789 23.4842 14.1138C23.719 14.3486 23.851 14.6672 23.851 14.9993V17.504C23.851 17.8362 23.719 18.1547 23.4842 18.3896C23.2493 18.6244 22.9308 18.7564 22.5986 18.7564Z" stroke="#FBFBFB" stroke-linecap="round" stroke-linejoin="round"/>
</g>
<path d="M30.4721 11.12C30.4721 11.3233 30.4254 11.51 30.3321 11.68C30.2387 11.8467 30.0954 11.9817 29.9021 12.085C29.7087 12.1883 29.4687 12.24 29.1821 12.24H28.6521V13.5H27.7971V9.99H29.1821C29.4621 9.99 29.6987 10.0383 29.8921 10.135C30.0854 10.2317 30.2304 10.365 30.3271 10.535C30.4237 10.705 30.4721 10.9 30.4721 11.12ZM29.1171 11.56C29.2804 11.56 29.4021 11.5217 29.4821 11.445C29.5621 11.3683 29.6021 11.26 29.6021 11.12C29.6021 10.98 29.5621 10.8717 29.4821 10.795C29.4021 10.7183 29.2804 10.68 29.1171 10.68H28.6521V11.56H29.1171ZM33.6722 10.71V13.5H32.8172V13.12C32.7305 13.2433 32.6122 13.3433 32.4622 13.42C32.3155 13.4933 32.1522 13.53 31.9722 13.53C31.7589 13.53 31.5705 13.4833 31.4072 13.39C31.2439 13.2933 31.1172 13.155 31.0272 12.975C30.9372 12.795 30.8922 12.5833 30.8922 12.34V10.71H31.7422V12.225C31.7422 12.4117 31.7905 12.5567 31.8872 12.66C31.9839 12.7633 32.1139 12.815 32.2772 12.815C32.4439 12.815 32.5755 12.7633 32.6722 12.66C32.7689 12.5567 32.8172 12.4117 32.8172 12.225V10.71H33.6722ZM35.4213 13.54C35.178 13.54 34.9613 13.4983 34.7713 13.415C34.5813 13.3317 34.4313 13.2183 34.3213 13.075C34.2113 12.9283 34.1497 12.765 34.1363 12.585H34.9813C34.9913 12.6817 35.0363 12.76 35.1163 12.82C35.1963 12.88 35.2947 12.91 35.4113 12.91C35.518 12.91 35.5997 12.89 35.6563 12.85C35.7163 12.8067 35.7463 12.7517 35.7463 12.685C35.7463 12.605 35.7047 12.5467 35.6213 12.51C35.538 12.47 35.403 12.4267 35.2163 12.38C35.0163 12.3333 34.8497 12.285 34.7163 12.235C34.583 12.1817 34.468 12.1 34.3713 11.99C34.2747 11.8767 34.2263 11.725 34.2263 11.535C34.2263 11.375 34.2697 11.23 34.3563 11.1C34.4463 10.9667 34.5763 10.8617 34.7463 10.785C34.9197 10.7083 35.1247 10.67 35.3613 10.67C35.7113 10.67 35.9863 10.7567 36.1863 10.93C36.3897 11.1033 36.5063 11.3333 36.5363 11.62H35.7463C35.733 11.5233 35.6897 11.4467 35.6163 11.39C35.5463 11.3333 35.453 11.305 35.3363 11.305C35.2363 11.305 35.1597 11.325 35.1063 11.365C35.053 11.4017 35.0263 11.4533 35.0263 11.52C35.0263 11.6 35.068 11.66 35.1513 11.7C35.238 11.74 35.3713 11.78 35.5513 11.82C35.758 11.8733 35.9263 11.9267 36.0563 11.98C36.1863 12.03 36.2997 12.1133 36.3963 12.23C36.4963 12.3433 36.548 12.4967 36.5513 12.69C36.5513 12.8533 36.5047 13 36.4113 13.13C36.3213 13.2567 36.1897 13.3567 36.0163 13.43C35.8463 13.5033 35.648 13.54 35.4213 13.54ZM36.9044 12.1C36.9044 11.8133 36.9578 11.5617 37.0644 11.345C37.1744 11.1283 37.3228 10.9617 37.5094 10.845C37.6961 10.7283 37.9044 10.67 38.1344 10.67C38.3311 10.67 38.5028 10.71 38.6494 10.79C38.7994 10.87 38.9144 10.975 38.9944 11.105V10.71H39.8494V13.5H38.9944V13.105C38.9111 13.235 38.7944 13.34 38.6444 13.42C38.4978 13.5 38.3261 13.54 38.1294 13.54C37.9028 13.54 37.6961 13.4817 37.5094 13.365C37.3228 13.245 37.1744 13.0767 37.0644 12.86C36.9578 12.64 36.9044 12.3867 36.9044 12.1ZM38.9944 12.105C38.9944 11.8917 38.9344 11.7233 38.8144 11.6C38.6978 11.4767 38.5544 11.415 38.3844 11.415C38.2144 11.415 38.0694 11.4767 37.9494 11.6C37.8328 11.72 37.7744 11.8867 37.7744 12.1C37.7744 12.3133 37.8328 12.4833 37.9494 12.61C38.0694 12.7333 38.2144 12.795 38.3844 12.795C38.5544 12.795 38.6978 12.7333 38.8144 12.61C38.9344 12.4867 38.9944 12.3183 38.9944 12.105ZM42.023 12.775V13.5H41.588C41.278 13.5 41.0363 13.425 40.863 13.275C40.6896 13.1217 40.603 12.8733 40.603 12.53V11.42H40.263V10.71H40.603V10.03H41.458V10.71H42.018V11.42H41.458V12.54C41.458 12.6233 41.478 12.6833 41.518 12.72C41.558 12.7567 41.6246 12.775 41.718 12.775H42.023Z" fill="#FBFBFB"/>
<path d="M29.9878 17.95C30.1911 17.9933 30.3544 18.095 30.4778 18.255C30.6011 18.4117 30.6628 18.5917 30.6628 18.795C30.6628 19.0883 30.5594 19.3217 30.3528 19.495C30.1494 19.665 29.8644 19.75 29.4978 19.75H27.8628V16.24H29.4428C29.7994 16.24 30.0778 16.3217 30.2778 16.485C30.4811 16.6483 30.5828 16.87 30.5828 17.15C30.5828 17.3567 30.5278 17.5283 30.4178 17.665C30.3111 17.8017 30.1678 17.8967 29.9878 17.95ZM28.7178 17.66H29.2778C29.4178 17.66 29.5244 17.63 29.5978 17.57C29.6744 17.5067 29.7128 17.415 29.7128 17.295C29.7128 17.175 29.6744 17.0833 29.5978 17.02C29.5244 16.9567 29.4178 16.925 29.2778 16.925H28.7178V17.66ZM29.3478 19.06C29.4911 19.06 29.6011 19.0283 29.6778 18.965C29.7578 18.8983 29.7978 18.8033 29.7978 18.68C29.7978 18.5567 29.7561 18.46 29.6728 18.39C29.5928 18.32 29.4811 18.285 29.3378 18.285H28.7178V19.06H29.3478ZM30.9887 18.35C30.9887 18.0633 31.042 17.8117 31.1487 17.595C31.2587 17.3783 31.407 17.2117 31.5937 17.095C31.7803 16.9783 31.9887 16.92 32.2187 16.92C32.4153 16.92 32.587 16.96 32.7337 17.04C32.8837 17.12 32.9987 17.225 33.0787 17.355V16.96H33.9337V19.75H33.0787V19.355C32.9953 19.485 32.8787 19.59 32.7287 19.67C32.582 19.75 32.4103 19.79 32.2137 19.79C31.987 19.79 31.7803 19.7317 31.5937 19.615C31.407 19.495 31.2587 19.3267 31.1487 19.11C31.042 18.89 30.9887 18.6367 30.9887 18.35ZM33.0787 18.355C33.0787 18.1417 33.0187 17.9733 32.8987 17.85C32.782 17.7267 32.6387 17.665 32.4687 17.665C32.2987 17.665 32.1537 17.7267 32.0337 17.85C31.917 17.97 31.8587 18.1367 31.8587 18.35C31.8587 18.5633 31.917 18.7333 32.0337 18.86C32.1537 18.9833 32.2987 19.045 32.4687 19.045C32.6387 19.045 32.782 18.9833 32.8987 18.86C33.0187 18.7367 33.0787 18.5683 33.0787 18.355ZM36.2522 16.93C36.5789 16.93 36.8389 17.0367 37.0322 17.25C37.2289 17.46 37.3272 17.75 37.3272 18.12V19.75H36.4772V18.235C36.4772 18.0483 36.4289 17.9033 36.3322 17.8C36.2355 17.6967 36.1055 17.645 35.9422 17.645C35.7789 17.645 35.6489 17.6967 35.5522 17.8C35.4555 17.9033 35.4072 18.0483 35.4072 18.235V19.75H34.5522V16.96H35.4072V17.33C35.4939 17.2067 35.6105 17.11 35.7572 17.04C35.9039 16.9667 36.0689 16.93 36.2522 16.93ZM39.4763 19.025V19.75H39.0413C38.7313 19.75 38.4897 19.675 38.3163 19.525C38.143 19.3717 38.0563 19.1233 38.0563 18.78V17.67H37.7163V16.96H38.0563V16.28H38.9113V16.96H39.4713V17.67H38.9113V18.79C38.9113 18.8733 38.9313 18.9333 38.9713 18.97C39.0113 19.0067 39.078 19.025 39.1713 19.025H39.4763ZM42.7076 16.96V19.75H41.8526V19.37C41.7659 19.4933 41.6476 19.5933 41.4976 19.67C41.3509 19.7433 41.1876 19.78 41.0076 19.78C40.7943 19.78 40.6059 19.7333 40.4426 19.64C40.2793 19.5433 40.1526 19.405 40.0626 19.225C39.9726 19.045 39.9276 18.8333 39.9276 18.59V16.96H40.7776V18.475C40.7776 18.6617 40.8259 18.8067 40.9226 18.91C41.0193 19.0133 41.1493 19.065 41.3126 19.065C41.4793 19.065 41.6109 19.0133 41.7076 18.91C41.8043 18.8067 41.8526 18.6617 41.8526 18.475V16.96H42.7076ZM43.1517 18.35C43.1517 18.0633 43.2051 17.8117 43.3117 17.595C43.4217 17.3783 43.5701 17.2117 43.7567 17.095C43.9434 16.9783 44.1517 16.92 44.3817 16.92C44.5784 16.92 44.7501 16.96 44.8967 17.04C45.0467 17.12 45.1617 17.225 45.2417 17.355V16.96H46.0967V19.75H45.2417V19.355C45.1584 19.485 45.0417 19.59 44.8917 19.67C44.7451 19.75 44.5734 19.79 44.3767 19.79C44.1501 19.79 43.9434 19.7317 43.7567 19.615C43.5701 19.495 43.4217 19.3267 43.3117 19.11C43.2051 18.89 43.1517 18.6367 43.1517 18.35ZM45.2417 18.355C45.2417 18.1417 45.1817 17.9733 45.0617 17.85C44.9451 17.7267 44.8017 17.665 44.6317 17.665C44.4617 17.665 44.3167 17.7267 44.1967 17.85C44.0801 17.97 44.0217 18.1367 44.0217 18.35C44.0217 18.5633 44.0801 18.7333 44.1967 18.86C44.3167 18.9833 44.4617 19.045 44.6317 19.045C44.8017 19.045 44.9451 18.9833 45.0617 18.86C45.1817 18.7367 45.2417 18.5683 45.2417 18.355ZM48.4153 16.93C48.742 16.93 49.002 17.0367 49.1953 17.25C49.392 17.46 49.4903 17.75 49.4903 18.12V19.75H48.6403V18.235C48.6403 18.0483 48.592 17.9033 48.4953 17.8C48.3986 17.6967 48.2686 17.645 48.1053 17.645C47.942 17.645 47.812 17.6967 47.7153 17.8C47.6186 17.9033 47.5703 18.0483 47.5703 18.235V19.75H46.7153V16.96H47.5703V17.33C47.657 17.2067 47.7736 17.11 47.9203 17.04C48.067 16.9667 48.232 16.93 48.4153 16.93Z" fill="#FBFBFB"/>
<defs>
<clipPath id="clip0_3707_24">
<rect width="17.533" height="17.533" fill="white" transform="translate(6.94418 6.85938)"/>
</clipPath>
</defs>
</svg>
