<svg width="23" height="23" viewBox="0 0 23 23" fill="none" xmlns="http://www.w3.org/2000/svg">
<path d="M16.9146 6.08385C16.1113 5.27335 15.1363 4.65364 14.0614 4.27048C12.9866 3.88731 11.8394 3.75049 10.7046 3.8701C7.18751 4.22468 4.29334 7.08051 3.90043 10.5976C3.37334 15.2455 6.96709 19.1651 11.5 19.1651C12.9472 19.1651 14.3647 18.7545 15.5878 17.9809C16.8109 17.2074 17.7894 16.1026 18.4096 14.7951C18.7163 14.153 18.2563 13.4151 17.5471 13.4151C17.1925 13.4151 16.8571 13.6068 16.7038 13.923C16.1474 15.12 15.1957 16.0888 14.0088 16.6665C12.822 17.2443 11.4724 17.3956 10.1871 17.0951C8.05959 16.6255 6.34418 14.8909 5.89376 12.7634C5.70442 11.9223 5.70662 11.0493 5.90018 10.2091C6.09373 9.36888 6.47371 8.58294 7.01199 7.9094C7.55027 7.23585 8.23309 6.69194 9.00994 6.31789C9.78679 5.94384 10.6378 5.74922 11.5 5.74843C13.0908 5.74843 14.5092 6.40968 15.5442 7.45426L14.0971 8.90135C13.4933 9.5051 13.915 10.5401 14.7679 10.5401H18.2083C18.7354 10.5401 19.1667 10.1088 19.1667 9.58176V6.14135C19.1667 5.28843 18.1317 4.85718 17.5279 5.46093L16.9146 6.08385Z" fill="#FBFBFB"/>
</svg>
