<svg width="64" height="64" viewBox="0 0 64 64" fill="none" xmlns="http://www.w3.org/2000/svg">
<g filter="url(#filter0_d_3388_1095)">
<rect x="10" y="10" width="34" height="34" rx="5" fill="#FBFBFB"/>
</g>
<path d="M23 36H19C18.7348 36 18.4804 35.8946 18.2929 35.7071C18.1054 35.5196 18 35.2652 18 35V31C18 30.7348 17.8946 30.4804 17.7071 30.2929C17.5196 30.1054 17.2652 30 17 30C16.7348 30 16.4804 30.1054 16.2929 30.2929C16.1054 30.4804 16 30.7348 16 31V35C16 35.7956 16.3161 36.5587 16.8787 37.1213C17.4413 37.6839 18.2044 38 19 38H23C23.2652 38 23.5196 37.8946 23.7071 37.7071C23.8946 37.5196 24 37.2652 24 37C24 36.7348 23.8946 36.4804 23.7071 36.2929C23.5196 36.1054 23.2652 36 23 36ZM37 30C36.7348 30 36.4804 30.1054 36.2929 30.2929C36.1054 30.4804 36 30.7348 36 31V35C36 35.2652 35.8946 35.5196 35.7071 35.7071C35.5196 35.8946 35.2652 36 35 36H31C30.7348 36 30.4804 36.1054 30.2929 36.2929C30.1054 36.4804 30 36.7348 30 37C30 37.2652 30.1054 37.5196 30.2929 37.7071C30.4804 37.8946 30.7348 38 31 38H35C35.7956 38 36.5587 37.6839 37.1213 37.1213C37.6839 36.5587 38 35.7956 38 35V31C38 30.7348 37.8946 30.4804 37.7071 30.2929C37.5196 30.1054 37.2652 30 37 30ZM35 16H31C30.7348 16 30.4804 16.1054 30.2929 16.2929C30.1054 16.4804 30 16.7348 30 17C30 17.2652 30.1054 17.5196 30.2929 17.7071C30.4804 17.8946 30.7348 18 31 18H35C35.2652 18 35.5196 18.1054 35.7071 18.2929C35.8946 18.4804 36 18.7348 36 19V23C36 23.2652 36.1054 23.5196 36.2929 23.7071C36.4804 23.8946 36.7348 24 37 24C37.2652 24 37.5196 23.8946 37.7071 23.7071C37.8946 23.5196 38 23.2652 38 23V19C38 18.2044 37.6839 17.4413 37.1213 16.8787C36.5587 16.3161 35.7956 16 35 16ZM17 24C17.2652 24 17.5196 23.8946 17.7071 23.7071C17.8946 23.5196 18 23.2652 18 23V19C18 18.7348 18.1054 18.4804 18.2929 18.2929C18.4804 18.1054 18.7348 18 19 18H23C23.2652 18 23.5196 17.8946 23.7071 17.7071C23.8946 17.5196 24 17.2652 24 17C24 16.7348 23.8946 16.4804 23.7071 16.2929C23.5196 16.1054 23.2652 16 23 16H19C18.2044 16 17.4413 16.3161 16.8787 16.8787C16.3161 17.4413 16 18.2044 16 19V23C16 23.2652 16.1054 23.5196 16.2929 23.7071C16.4804 23.8946 16.7348 24 17 24ZM25 20H21C20.7348 20 20.4804 20.1054 20.2929 20.2929C20.1054 20.4804 20 20.7348 20 21V25C20 25.2652 20.1054 25.5196 20.2929 25.7071C20.4804 25.8946 20.7348 26 21 26H25C25.2652 26 25.5196 25.8946 25.7071 25.7071C25.8946 25.5196 26 25.2652 26 25V21C26 20.7348 25.8946 20.4804 25.7071 20.2929C25.5196 20.1054 25.2652 20 25 20ZM24 24H22V22H24V24ZM29 26H33C33.2652 26 33.5196 25.8946 33.7071 25.7071C33.8946 25.5196 34 25.2652 34 25V21C34 20.7348 33.8946 20.4804 33.7071 20.2929C33.5196 20.1054 33.2652 20 33 20H29C28.7348 20 28.4804 20.1054 28.2929 20.2929C28.1054 20.4804 28 20.7348 28 21V25C28 25.2652 28.1054 25.5196 28.2929 25.7071C28.4804 25.8946 28.7348 26 29 26ZM30 22H32V24H30V22ZM25 28H21C20.7348 28 20.4804 28.1054 20.2929 28.2929C20.1054 28.4804 20 28.7348 20 29V33C20 33.2652 20.1054 33.5196 20.2929 33.7071C20.4804 33.8946 20.7348 34 21 34H25C25.2652 34 25.5196 33.8946 25.7071 33.7071C25.8946 33.5196 26 33.2652 26 33V29C26 28.7348 25.8946 28.4804 25.7071 28.2929C25.5196 28.1054 25.2652 28 25 28ZM24 32H22V30H24V32ZM29 31C29.2652 31 29.5196 30.8946 29.7071 30.7071C29.8946 30.5196 30 30.2652 30 30C30.2652 30 30.5196 29.8946 30.7071 29.7071C30.8946 29.5196 31 29.2652 31 29C31 28.7348 30.8946 28.4804 30.7071 28.2929C30.5196 28.1054 30.2652 28 30 28H29C28.7348 28 28.4804 28.1054 28.2929 28.2929C28.1054 28.4804 28 28.7348 28 29V30C28 30.2652 28.1054 30.5196 28.2929 30.7071C28.4804 30.8946 28.7348 31 29 31ZM33 28C32.7348 28 32.4804 28.1054 32.2929 28.2929C32.1054 28.4804 32 28.7348 32 29V32C31.7348 32 31.4804 32.1054 31.2929 32.2929C31.1054 32.4804 31 32.7348 31 33C31 33.2652 31.1054 33.5196 31.2929 33.7071C31.4804 33.8946 31.7348 34 32 34H33C33.2652 34 33.5196 33.8946 33.7071 33.7071C33.8946 33.5196 34 33.2652 34 33V29C34 28.7348 33.8946 28.4804 33.7071 28.2929C33.5196 28.1054 33.2652 28 33 28ZM29 32C28.8022 32 28.6089 32.0586 28.4444 32.1685C28.28 32.2784 28.1518 32.4346 28.0761 32.6173C28.0004 32.8 27.9806 33.0011 28.0192 33.1951C28.0578 33.3891 28.153 33.5673 28.2929 33.7071C28.4327 33.847 28.6109 33.9422 28.8049 33.9808C28.9989 34.0194 29.2 33.9996 29.3827 33.9239C29.5654 33.8482 29.7216 33.72 29.8315 33.5556C29.9414 33.3911 30 33.1978 30 33C30 32.7348 29.8946 32.4804 29.7071 32.2929C29.5196 32.1054 29.2652 32 29 32Z" fill="#2D49FF"/>
<defs>
<filter id="filter0_d_3388_1095" x="0" y="0" width="64" height="64" filterUnits="userSpaceOnUse" color-interpolation-filters="sRGB">
<feFlood flood-opacity="0" result="BackgroundImageFix"/>
<feColorMatrix in="SourceAlpha" type="matrix" values="0 0 0 0 0 0 0 0 0 0 0 0 0 0 0 0 0 0 127 0" result="hardAlpha"/>
<feOffset dx="5" dy="5"/>
<feGaussianBlur stdDeviation="7.5"/>
<feColorMatrix type="matrix" values="0 0 0 0 0.2 0 0 0 0 0.2 0 0 0 0 0.2 0 0 0 0.2 0"/>
<feBlend mode="normal" in2="BackgroundImageFix" result="effect1_dropShadow_3388_1095"/>
<feBlend mode="normal" in="SourceGraphic" in2="effect1_dropShadow_3388_1095" result="shape"/>
</filter>
</defs>
</svg>
